<?xml version="1.0" encoding="UTF-8" standalone="no"?>
<!-- Created with Inkscape (http://www.inkscape.org/) -->

<svg
   xmlns:osb="http://www.openswatchbook.org/uri/2009/osb"
   xmlns:dc="http://purl.org/dc/elements/1.1/"
   xmlns:cc="http://creativecommons.org/ns#"
   xmlns:rdf="http://www.w3.org/1999/02/22-rdf-syntax-ns#"
   xmlns:svg="http://www.w3.org/2000/svg"
   xmlns="http://www.w3.org/2000/svg"
   xmlns:sodipodi="http://sodipodi.sourceforge.net/DTD/sodipodi-0.dtd"
   xmlns:inkscape="http://www.inkscape.org/namespaces/inkscape"
   width="210mm"
   height="297mm"
   viewBox="0 0 744.09448819 1052.3622047"
   id="svg2"
   version="1.1"
   inkscape:version="0.91 r13725"
   sodipodi:docname="icon.svg"
   inkscape:export-filename="C:\Users\fedep_000\Desktop\icon256.png"
   inkscape:export-xdpi="199.57762"
   inkscape:export-ydpi="199.57762">
  <defs
     id="defs4">
    <linearGradient
       inkscape:collect="always"
       id="linearGradient5582"
       osb:paint="gradient">
      <stop
         style="stop-color:#ffffff;stop-opacity:1;"
         offset="0"
         id="stop5584" />
      <stop
         style="stop-color:#ffffff;stop-opacity:0;"
         offset="1"
         id="stop5586" />
    </linearGradient>
  </defs>
  <sodipodi:namedview
     id="base"
     pagecolor="#ffffff"
     bordercolor="#666666"
     borderopacity="1.0"
     inkscape:pageopacity="0.0"
     inkscape:pageshadow="2"
     inkscape:zoom="1"
     inkscape:cx="119.66943"
     inkscape:cy="786.63262"
     inkscape:document-units="px"
     inkscape:current-layer="layer1"
     showgrid="false"
     inkscape:window-width="1920"
     inkscape:window-height="1017"
     inkscape:window-x="-8"
     inkscape:window-y="-8"
     inkscape:window-maximized="1" />
  <metadata
     id="metadata7">
    <rdf:RDF>
      <cc:Work
         rdf:about="">
        <dc:format>image/svg+xml</dc:format>
        <dc:type
           rdf:resource="http://purl.org/dc/dcmitype/StillImage" />
        <dc:title />
      </cc:Work>
    </rdf:RDF>
  </metadata>
  <g
     inkscape:label="Capa 1"
     inkscape:groupmode="layer"
     id="layer1">
    <circle
       style="opacity:1;fill:#ff1050;fill-opacity:1;fill-rule:nonzero;stroke:#000000;stroke-width:7;stroke-linecap:butt;stroke-linejoin:miter;stroke-miterlimit:4;stroke-dasharray:none;stroke-dashoffset:400;stroke-opacity:1"
       id="path5798"
       cx="373.57144"
       cy="236.64792"
       r="161.42857"
       inkscape:export-filename="C:\Users\fedep_000\Desktop\icon16.png"
       inkscape:export-xdpi="4.3655267"
       inkscape:export-ydpi="4.3655267" />
    <path
       style="opacity:1;fill:#000000;fill-opacity:1;fill-rule:nonzero;stroke:none;stroke-width:7;stroke-linecap:butt;stroke-linejoin:miter;stroke-miterlimit:4;stroke-dasharray:none;stroke-dashoffset:400;stroke-opacity:1"
       d="M 373.5 89.361328 A 148.5 148.5 0 0 0 225 237.86133 A 148.5 148.5 0 0 0 243 308.43555 L 243 212.36133 L 287.5 212.36133 L 287.5 358.78906 A 148.5 148.5 0 0 0 305.25 369.44922 L 305.25 172.11133 L 349.75 172.11133 L 349.75 384.23438 A 148.5 148.5 0 0 0 368.75 386.17383 L 368.75 199.61133 L 413.25 199.61133 L 413.25 380.7832 A 148.5 148.5 0 0 0 432.25 373.89844 L 432.25 154.11133 L 476.75 154.11133 L 476.75 344.41406 A 148.5 148.5 0 0 0 493.25 325.24023 L 493.25 253.11133 L 521.17969 253.11133 A 148.5 148.5 0 0 0 522 237.86133 A 148.5 148.5 0 0 0 373.5 89.361328 z "
       id="path5832"
       inkscape:export-filename="C:\Users\fedep_000\Desktop\icon16.png"
       inkscape:export-xdpi="4.3655267"
       inkscape:export-ydpi="4.3655267" />
  </g>
</svg>
